<svg id="visual" viewBox="0 0 900 600" width="900" height="600" xmlns="http://www.w3.org/2000/svg" xmlns:xlink="http://www.w3.org/1999/xlink" version="1.1"><rect x="0" y="0" width="900" height="600" fill="#97ADBD"></rect><defs><linearGradient id="grad1_0" x1="33.3%" y1="0%" x2="100%" y2="100%"><stop offset="20%" stop-color="#97adbd" stop-opacity="1"></stop><stop offset="80%" stop-color="#97adbd" stop-opacity="1"></stop></linearGradient></defs><defs><linearGradient id="grad2_0" x1="0%" y1="0%" x2="66.7%" y2="100%"><stop offset="20%" stop-color="#97adbd" stop-opacity="1"></stop><stop offset="80%" stop-color="#97adbd" stop-opacity="1"></stop></linearGradient></defs><g transform="translate(900, 0)"><path d="M0 351.5C-42.9 356.9 -85.9 362.2 -108.6 334.3C-131.4 306.5 -133.9 245.4 -160.5 220.9C-187 196.3 -237.7 208.3 -267 194C-296.3 179.6 -304.3 139 -314.8 102.3C-325.3 65.6 -338.4 32.8 -351.5 0L0 0Z" fill="#001220"></path></g><g transform="translate(0, 600)"><path d="M0 -351.5C36.8 -336.8 73.5 -322 95.5 -293.9C117.5 -265.8 124.6 -224.3 151.1 -207.9C177.5 -201.5 223.1 -200.1 258.9 -188.1C294.7 -176.1 320.5 -143.4 334.3 -108.6C348.1 -73.8 349.8 -36.9 351.5 0L0 0Z" fill="#001220"></path></g></svg>
