<svg id="visual" viewBox="0 0 900 600" width="900" height="600" xmlns="http://www.w3.org/2000/svg" xmlns:xlink="http://www.w3.org/1999/xlink" version="1.1"><rect x="0" y="0" width="900" height="600" fill="#97ADBD"></rect><defs><linearGradient id="grad1_0" x1="33.3%" y1="0%" x2="100%" y2="100%"><stop offset="20%" stop-color="#001220" stop-opacity="1"></stop><stop offset="80%" stop-color="#001220" stop-opacity="1"></stop></linearGradient></defs><defs><linearGradient id="grad1_1" x1="33.3%" y1="0%" x2="100%" y2="100%"><stop offset="20%" stop-color="#001220" stop-opacity="1"></stop><stop offset="80%" stop-color="#243443" stop-opacity="1"></stop></linearGradient></defs><defs><linearGradient id="grad1_2" x1="33.3%" y1="0%" x2="100%" y2="100%"><stop offset="20%" stop-color="#485a69" stop-opacity="1"></stop><stop offset="80%" stop-color="#243443" stop-opacity="1"></stop></linearGradient></defs><defs><linearGradient id="grad1_3" x1="33.3%" y1="0%" x2="100%" y2="100%"><stop offset="20%" stop-color="#485a69" stop-opacity="1"></stop><stop offset="80%" stop-color="#6e8292" stop-opacity="1"></stop></linearGradient></defs><defs><linearGradient id="grad1_4" x1="33.3%" y1="0%" x2="100%" y2="100%"><stop offset="20%" stop-color="#97adbd" stop-opacity="1"></stop><stop offset="80%" stop-color="#6e8292" stop-opacity="1"></stop></linearGradient></defs><defs><linearGradient id="grad2_0" x1="0%" y1="0%" x2="66.7%" y2="100%"><stop offset="20%" stop-color="#001220" stop-opacity="1"></stop><stop offset="80%" stop-color="#001220" stop-opacity="1"></stop></linearGradient></defs><defs><linearGradient id="grad2_1" x1="0%" y1="0%" x2="66.7%" y2="100%"><stop offset="20%" stop-color="#243443" stop-opacity="1"></stop><stop offset="80%" stop-color="#001220" stop-opacity="1"></stop></linearGradient></defs><defs><linearGradient id="grad2_2" x1="0%" y1="0%" x2="66.7%" y2="100%"><stop offset="20%" stop-color="#243443" stop-opacity="1"></stop><stop offset="80%" stop-color="#485a69" stop-opacity="1"></stop></linearGradient></defs><defs><linearGradient id="grad2_3" x1="0%" y1="0%" x2="66.7%" y2="100%"><stop offset="20%" stop-color="#6e8292" stop-opacity="1"></stop><stop offset="80%" stop-color="#485a69" stop-opacity="1"></stop></linearGradient></defs><defs><linearGradient id="grad2_4" x1="0%" y1="0%" x2="66.7%" y2="100%"><stop offset="20%" stop-color="#6e8292" stop-opacity="1"></stop><stop offset="80%" stop-color="#97adbd" stop-opacity="1"></stop></linearGradient></defs><g transform="translate(900, 0)"><path d="M0 351.5C-46.5 346.9 -93 342.2 -134.5 324.8C-176.1 307.4 -212.8 277.2 -243.2 243.2C-273.7 209.3 -298 171.7 -315 130.5C-332.1 89.3 -341.8 44.7 -351.5 0L0 0Z" fill="#8297a7"></path><path d="M0 281.2C-37.2 277.5 -74.4 273.8 -107.6 259.8C-140.9 245.9 -170.2 221.7 -194.6 194.6C-219 167.5 -238.4 137.3 -252 104.4C-265.6 71.5 -273.4 35.7 -281.2 0L0 0Z" fill="#5b6e7d"></path><path d="M0 210.9C-27.9 208.1 -55.8 205.3 -80.7 194.9C-105.7 184.4 -127.7 166.3 -145.9 145.9C-164.2 125.6 -178.8 103 -189 78.3C-199.2 53.6 -205.1 26.8 -210.9 0L0 0Z" fill="#364756"></path><path d="M0 140.6C-18.6 138.7 -37.2 136.9 -53.8 129.9C-70.4 122.9 -85.1 110.9 -97.3 97.3C-109.5 83.7 -119.2 68.7 -126 52.2C-132.8 35.7 -136.7 17.9 -140.6 0L0 0Z" fill="#132331"></path><path d="M0 70.3C-9.3 69.4 -18.6 68.4 -26.9 65C-35.2 61.5 -42.6 55.4 -48.6 48.6C-54.7 41.9 -59.6 34.3 -63 26.1C-66.4 17.9 -68.4 8.9 -70.3 0L0 0Z" fill="#001220"></path></g><g transform="translate(0, 600)"><path d="M0 -351.5C47 -347.4 94 -343.3 134.5 -324.8C175.1 -306.2 209.2 -273.2 239 -239C268.8 -204.8 294.2 -169.4 312.3 -129.3C330.3 -89.3 340.9 -44.7 351.5 0L0 0Z" fill="#8297a7"></path><path d="M0 -281.2C37.6 -278 75.2 -274.7 107.6 -259.8C140.1 -245 167.4 -218.6 191.2 -191.2C215 -163.8 235.4 -135.5 249.8 -103.5C264.2 -71.5 272.7 -35.7 281.2 0L0 0Z" fill="#5b6e7d"></path><path d="M0 -210.9C28.2 -208.5 56.4 -206 80.7 -194.9C105.1 -183.7 125.5 -163.9 143.4 -143.4C161.3 -122.9 176.5 -101.6 187.4 -77.6C198.2 -53.6 204.6 -26.8 210.9 0L0 0Z" fill="#364756"></path><path d="M0 -140.6C18.8 -139 37.6 -137.3 53.8 -129.9C70 -122.5 83.7 -109.3 95.6 -95.6C107.5 -81.9 117.7 -67.8 124.9 -51.7C132.1 -35.7 136.4 -17.9 140.6 0L0 0Z" fill="#132331"></path><path d="M0 -70.3C9.4 -69.5 18.8 -68.7 26.9 -65C35 -61.2 41.8 -54.6 47.8 -47.8C53.8 -41 58.8 -33.9 62.5 -25.9C66.1 -17.9 68.2 -8.9 70.3 0L0 0Z" fill="#001220"></path></g></svg>