<?xml version="1.0" standalone="no"?><svg xmlns="http://www.w3.org/2000/svg" viewBox="0 0 1440 320"><path fill="#97ADBD" fill-opacity="1" d="M0,64L10,80C20,96,40,128,60,170.7C80,213,100,267,120,261.3C140,256,160,192,180,154.7C200,117,220,107,240,90.7C260,75,280,53,300,58.7C320,64,340,96,360,96C380,96,400,64,420,90.7C440,117,460,203,480,229.3C500,256,520,224,540,197.3C560,171,580,149,600,133.3C620,117,640,107,660,122.7C680,139,700,181,720,213.3C740,245,760,267,780,245.3C800,224,820,160,840,133.3C860,107,880,117,900,149.3C920,181,940,235,960,250.7C980,267,1000,245,1020,218.7C1040,192,1060,160,1080,128C1100,96,1120,64,1140,74.7C1160,85,1180,139,1200,181.3C1220,224,1240,256,1260,229.3C1280,203,1300,117,1320,85.3C1340,53,1360,75,1380,80C1400,85,1420,75,1430,69.3L1440,64L1440,320L1430,320C1420,320,1400,320,1380,320C1360,320,1340,320,1320,320C1300,320,1280,320,1260,320C1240,320,1220,320,1200,320C1180,320,1160,320,1140,320C1120,320,1100,320,1080,320C1060,320,1040,320,1020,320C1000,320,980,320,960,320C940,320,920,320,900,320C880,320,860,320,840,320C820,320,800,320,780,320C760,320,740,320,720,320C700,320,680,320,660,320C640,320,620,320,600,320C580,320,560,320,540,320C520,320,500,320,480,320C460,320,440,320,420,320C400,320,380,320,360,320C340,320,320,320,300,320C280,320,260,320,240,320C220,320,200,320,180,320C160,320,140,320,120,320C100,320,80,320,60,320C40,320,20,320,10,320L0,320Z"></path></svg>